<?xml version="1.0" encoding="UTF-8"?>
<svg xmlns="http://www.w3.org/2000/svg" xmlns:xlink="http://www.w3.org/1999/xlink" width="120.02pt" height="40pt" viewBox="0 0 120.02 40" version="1.1">
<defs>
<clipPath id="clip1">
  <path d="M 106 23 L 120.019531 23 L 120.019531 40 L 106 40 Z M 106 23 "/>
</clipPath>
</defs>
<g id="surface1">
<path style=" stroke:none;fill-rule:nonzero;fill:rgb(92.199707%,35.299683%,14.099121%);fill-opacity:1;" d="M 19.570313 4.476563 C 19.570313 6.949219 21.558594 8.953125 24.011719 8.953125 L 27.109375 8.953125 L 27.105469 8.957031 C 27.105469 8.957031 28.042969 9.007813 28.695313 9.664063 C 29.222656 10.199219 29.355469 11.03125 29.375 11.214844 L 29.375 17.65625 C 29.34375 17.914063 29.207031 18.625 28.6875 19.148438 C 28.089844 19.753906 27.109375 19.84375 27.109375 19.84375 L 20.859375 19.84375 C 20.632813 19.8125 19.824219 19.660156 19.324219 19.160156 C 18.832031 18.660156 18.671875 17.945313 18.628906 17.65625 L 18.628906 14.402344 C 18.628906 11.929688 16.644531 9.925781 14.191406 9.925781 C 11.738281 9.925781 9.75 11.929688 9.75 14.402344 C 9.75 16.875 11.738281 18.878906 14.191406 18.878906 L 17.304688 18.878906 C 17.300781 18.878906 17.300781 18.882813 17.300781 18.882813 C 17.300781 18.882813 18.234375 18.949219 18.882813 19.605469 C 19.398438 20.121094 19.535156 20.925781 19.5625 21.140625 L 19.5625 24.320313 C 19.5625 24.628906 19.597656 24.929688 19.65625 25.222656 C 20.070313 27.261719 21.859375 28.796875 24.003906 28.796875 C 26.457031 28.796875 28.445313 26.792969 28.445313 24.320313 L 28.445313 21.175781 C 28.464844 21.007813 28.597656 20.128906 29.128906 19.597656 C 29.757813 18.964844 30.742188 18.875 30.742188 18.882813 L 30.734375 18.878906 L 33.816406 18.878906 C 36.269531 18.878906 38.257813 16.871094 38.257813 14.398438 L 38.257813 14.382813 C 38.257813 11.910156 36.269531 9.90625 33.816406 9.90625 L 30.691406 9.90625 C 30.496094 9.878906 29.652344 9.738281 29.136719 9.21875 C 28.632813 8.710938 28.484375 7.984375 28.449219 7.714844 L 28.449219 4.476563 C 28.449219 2.003906 26.460938 0 24.011719 0 C 21.558594 0 19.570313 2.003906 19.570313 4.476563 M 14.246094 28.796875 C 11.792969 28.796875 9.804688 26.792969 9.804688 24.320313 L 9.804688 21.082031 C 9.769531 20.808594 9.625 20.085938 9.121094 19.578125 C 8.605469 19.058594 7.761719 18.917969 7.566406 18.890625 L 4.441406 18.890625 C 1.988281 18.890625 0 16.886719 0 14.414063 C 0 14.410156 0 14.40625 0 14.40625 C 0 14.402344 0 14.398438 0 14.394531 C 0 11.921875 1.988281 9.917969 4.441406 9.917969 L 7.523438 9.917969 L 7.515625 9.914063 C 7.515625 9.921875 8.5 9.832031 9.128906 9.199219 C 9.65625 8.664063 9.789063 7.789063 9.8125 7.617188 L 9.8125 4.476563 C 9.8125 2.003906 11.800781 0 14.253906 0 C 16.398438 0 18.1875 1.535156 18.601563 3.574219 C 18.660156 3.863281 18.691406 4.164063 18.691406 4.476563 L 18.691406 7.65625 C 18.722656 7.867188 18.859375 8.675781 19.371094 9.191406 C 20.023438 9.847656 20.957031 9.914063 20.957031 9.914063 C 20.957031 9.914063 20.953125 9.917969 20.953125 9.917969 L 24.066406 9.917969 C 26.519531 9.917969 28.507813 11.921875 28.507813 14.394531 C 28.507813 16.863281 26.519531 18.871094 24.066406 18.871094 C 21.613281 18.871094 19.628906 16.863281 19.628906 14.394531 L 19.628906 11.136719 C 19.585938 10.851563 19.425781 10.136719 18.929688 9.636719 C 18.429688 9.132813 17.625 8.984375 17.398438 8.953125 L 11.148438 8.953125 C 11.148438 8.953125 10.164063 9.042969 9.570313 9.644531 C 9.050781 10.167969 8.914063 10.878906 8.882813 11.144531 L 8.882813 17.582031 C 8.902344 17.761719 9.035156 18.601563 9.5625 19.132813 C 10.214844 19.789063 11.148438 19.839844 11.148438 19.839844 L 11.144531 19.84375 L 14.246094 19.84375 C 16.699219 19.84375 18.6875 21.847656 18.6875 24.320313 C 18.6875 26.792969 16.699219 28.796875 14.246094 28.796875 "/>
<path style=" stroke:none;fill-rule:nonzero;fill:rgb(32.199097%,36.499023%,39.199829%);fill-opacity:1;" d="M 38.804688 26.0625 C 36.703125 26.0625 35.421875 27.535156 35.148438 30.113281 L 42.582031 30.113281 C 42.425781 27.90625 41.394531 26.0625 38.804688 26.0625 M 45.65625 32.726563 L 35.089844 32.726563 C 35.421875 35.824219 37.160156 37.144531 39.109375 37.144531 C 40.449219 37.144531 41.515625 36.652344 42.582031 35.855469 L 44.4375 37.882813 C 43.035156 39.230469 41.363281 40 38.925781 40 C 35.179688 40 32.011719 36.960938 32.011719 31.617188 C 32.011719 26.15625 34.875 23.207031 39.015625 23.207031 C 43.554688 23.207031 45.746094 26.921875 45.746094 31.28125 C 45.746094 31.863281 45.6875 32.386719 45.65625 32.726563 "/>
<path style=" stroke:none;fill-rule:nonzero;fill:rgb(32.199097%,36.499023%,39.199829%);fill-opacity:1;" d="M 57.292969 39.664063 L 57.292969 30.542969 C 57.292969 27.289063 56.078125 26.125 54.007813 26.125 C 51.90625 26.125 50.71875 27.628906 50.71875 30.238281 L 50.71875 39.664063 L 47.582031 39.664063 L 47.582031 23.542969 L 50.71875 23.542969 L 50.71875 25.082031 C 51.507813 23.914063 53.09375 23.207031 54.738281 23.207031 C 58.453125 23.207031 60.429688 25.664063 60.429688 30.421875 L 60.429688 39.664063 L 57.292969 39.664063 "/>
<path style=" stroke:none;fill-rule:nonzero;fill:rgb(32.199097%,36.499023%,39.199829%);fill-opacity:1;" d="M 72.636719 28.242188 C 71.933594 27.289063 70.472656 26.125 68.890625 26.125 C 66.636719 26.125 65.417969 27.84375 65.417969 31.25 C 65.417969 35.300781 66.699219 37.082031 69.011719 37.082031 C 70.503906 37.082031 71.8125 36.070313 72.636719 35.027344 Z M 72.605469 39.664063 L 72.605469 38.128906 C 71.449219 39.203125 70.109375 40 68.433594 40 C 64.992188 40 62.28125 37.480469 62.28125 31.34375 C 62.28125 25.816406 65.265625 23.207031 68.585938 23.207031 C 70.199219 23.207031 71.722656 24.066406 72.605469 25.046875 L 72.605469 18.910156 L 75.710938 17.28125 L 75.710938 39.664063 L 72.605469 39.664063 "/>
<path style=" stroke:none;fill-rule:nonzero;fill:rgb(32.199097%,36.499023%,39.199829%);fill-opacity:1;" d="M 101.140625 39.664063 L 98.003906 39.664063 L 92.28125 23.542969 L 95.566406 23.542969 L 98.433594 32.292969 C 98.949219 33.859375 99.40625 35.363281 99.617188 36.253906 C 99.800781 35.363281 100.226563 33.859375 100.714844 32.292969 L 103.457031 23.542969 L 106.773438 23.542969 L 101.140625 39.664063 "/>
<path style=" stroke:none;fill-rule:nonzero;fill:rgb(32.199097%,36.499023%,39.199829%);fill-opacity:1;" d="M 87.976563 28.242188 C 87.277344 27.289063 85.816406 26.125 84.230469 26.125 C 81.976563 26.125 80.761719 27.84375 80.761719 31.25 C 80.761719 35.300781 82.039063 37.082031 84.355469 37.082031 C 85.847656 37.082031 87.15625 36.070313 87.976563 35.027344 Z M 87.945313 39.664063 L 87.945313 38.128906 C 86.789063 39.203125 85.449219 40 83.773438 40 C 80.335938 40 77.625 37.480469 77.625 31.34375 C 77.625 25.816406 80.609375 23.207031 83.925781 23.207031 C 85.539063 23.207031 87.0625 24.066406 87.945313 25.046875 L 87.945313 23.535156 L 91.050781 23.535156 L 91.050781 39.664063 L 87.945313 39.664063 "/>
<g clip-path="url(#clip1)" clip-rule="nonzero">
<path style=" stroke:none;fill-rule:nonzero;fill:rgb(32.199097%,36.499023%,39.199829%);fill-opacity:1;" d="M 116.941406 28.242188 C 116.238281 27.289063 114.777344 26.125 113.195313 26.125 C 110.941406 26.125 109.722656 27.84375 109.722656 31.25 C 109.722656 35.300781 111.003906 37.082031 113.316406 37.082031 C 114.808594 37.082031 116.117188 36.070313 116.941406 35.027344 Z M 116.910156 39.664063 L 116.910156 38.128906 C 115.753906 39.203125 114.414063 40 112.738281 40 C 109.296875 40 106.589844 37.480469 106.589844 31.34375 C 106.589844 25.816406 109.570313 23.207031 112.890625 23.207031 C 114.503906 23.207031 116.027344 24.066406 116.910156 25.046875 L 116.910156 23.535156 L 120.015625 23.535156 L 120.015625 39.664063 L 116.910156 39.664063 "/>
</g>
</g>
</svg>
